# This file uses centimeters as units for non-parametric coordinates.

mtllib LowPolyRock_02.mtl
g default
v -7.250049 0.162649 4.992770
v 8.981815 0.167622 5.351835
v -7.068539 5.984831 -4.363943
v 7.405558 4.191130 -3.136875
v -6.904276 0.162649 -3.844609
v 7.250049 0.167622 -2.962238
v -6.795858 6.033282 -2.219648
v -7.523909 0.162649 -2.333449
v 7.803225 0.167622 -1.688861
v 7.922278 4.232558 -1.953464
v -8.181211 5.704110 2.329415
v -7.250049 0.162649 2.013888
v 9.014690 0.167622 1.457574
v 7.650572 3.601377 1.348218
v 4.568651 3.952928 1.832396
v 4.568651 4.840242 -2.123159
v 4.568651 4.574047 -3.723992
v 3.949811 0.166490 -3.219564
v 3.949811 0.166490 5.251405
v 0.316926 4.550510 1.995519
v 0.316926 5.231800 -2.312166
v 0.316926 5.231800 -4.272348
v 0.273997 0.165229 -3.506174
v 0.273997 0.165229 5.980327
v -4.861391 5.001778 2.194191
v -4.861391 5.708692 -2.203075
v -4.861391 6.234350 -4.845609
v -4.202898 0.163694 -3.855246
v -4.202898 0.163694 6.519840
v 7.956067 2.256307 3.757961
v 4.568651 2.486404 4.055603
v 0.316926 2.742688 4.387118
v -4.861391 3.054824 4.790881
v -7.378026 3.166949 4.132778
v -8.385956 4.012501 2.329415
v -8.204177 4.012501 -2.312601
v -7.735430 4.094791 -4.824752
v -4.861391 3.800049 -4.913283
v 0.316926 3.487913 -4.509520
v 4.568651 3.231629 -4.178005
v 7.899283 3.001532 -3.201653
v 8.155118 3.001532 -1.953464
v 8.385956 2.171700 1.685941
vt 0.771903 0.034078
vt 0.966424 0.293731
vt 0.808848 0.308819
vt 0.717778 0.201210
vt 0.815952 0.517568
vt 0.996072 0.577925
vt 0.716647 0.345372
vt 0.739781 0.504102
vt 0.954577 0.689013
vt 0.802014 0.588843
vt 0.740310 0.559418
vt 0.258881 0.493749
vt 0.000000 0.594661
vt 0.040373 0.318309
vt 0.226763 0.398712
vt 0.312232 0.704171
vt 0.231826 0.901743
vt 0.145211 0.141565
vt 0.271941 0.315076
vt 0.336716 0.479263
vt 0.421993 0.752716
vt 0.354335 0.971894
vt 0.425605 0.597593
vt 0.448855 0.662723
vt 0.465722 0.567515
vt 0.493801 0.655100
vt 0.387956 0.410261
vt 0.579823 0.540168
vt 0.598997 0.631412
vt 0.504238 0.351577
vt 0.664310 0.517410
vt 0.684613 0.598740
vt 0.432124 0.214141
vt 0.620090 0.325335
vt 0.589073 0.192132
vt 0.497431 0.778302
vt 0.491536 1.000000
vt 0.636295 0.749353
vt 0.715999 0.949257
vt 0.736467 0.680453
vt 0.865114 0.834197
vt 0.533824 0.000000
vt 0.344981 0.040087
vn -0.337855 0.340292 0.877528
vn -0.337855 0.340292 0.877528
vn -0.337855 0.340292 0.877528
vn -0.337855 0.340292 0.877528
vn 0.034487 0.703108 0.710246
vn 0.034487 0.703108 0.710246
vn 0.034487 0.703108 0.710246
vn 0.034487 0.703108 0.710246
vn -0.031131 -0.265616 -0.963576
vn -0.031131 -0.265616 -0.963576
vn -0.031131 -0.265616 -0.963576
vn -0.031131 -0.265616 -0.963576
vn 0.917323 0.392705 0.065582
vn 0.917323 0.392706 0.065582
vn 0.917323 0.392706 0.065582
vn 0.917323 0.392706 0.065582
vn -0.970569 -0.165038 0.175381
vn -0.970569 -0.165038 0.175381
vn -0.970569 -0.165038 0.175381
vn -0.970569 -0.165038 0.175381
vn -0.941648 -0.214830 -0.259127
vn -0.941648 -0.214830 -0.259127
vn -0.941648 -0.214830 -0.259127
vn -0.941648 -0.214830 -0.259127
vn 0.934527 -0.191732 -0.299831
vn 0.934527 -0.191732 -0.299831
vn 0.934527 -0.191732 -0.299831
vn 0.934527 -0.191732 -0.299831
vn 0.028984 0.994811 0.097523
vn 0.028984 0.994811 0.097523
vn 0.028984 0.994811 0.097523
vn 0.028984 0.994811 0.097523
vn -0.973145 -0.229977 0.009968
vn -0.973145 -0.229977 0.009968
vn -0.973145 -0.229977 0.009968
vn -0.973145 -0.229977 0.009968
vn 0.978032 0.054458 -0.201217
vn 0.978032 0.054458 -0.201217
vn 0.978032 0.054458 -0.201217
vn 0.978032 0.054458 -0.201217
vn 0.192958 0.970832 0.142313
vn 0.192958 0.970832 0.142313
vn 0.192958 0.970832 0.142313
vn 0.192958 0.970832 0.142313
vn 0.137784 0.850741 0.507203
vn 0.137784 0.850741 0.507203
vn 0.137784 0.850741 0.507203
vn 0.137784 0.850741 0.507203
vn 0.154133 0.965934 0.207881
vn 0.154133 0.965934 0.207881
vn 0.154133 0.965934 0.207881
vn 0.154133 0.965934 0.207881
vn 0.173102 0.974925 -0.139842
vn 0.173102 0.974926 -0.139842
vn 0.173102 0.974926 -0.139842
vn 0.173102 0.974926 -0.139842
vn 0.170241 -0.231109 -0.957918
vn 0.170241 -0.231109 -0.957918
vn 0.170241 -0.231109 -0.957918
vn 0.170241 -0.231109 -0.957918
vn 0.034343 0.536665 0.843096
vn 0.034343 0.536665 0.843096
vn 0.034343 0.536665 0.843096
vn 0.034343 0.536665 0.843096
vn 0.114791 0.810172 0.574842
vn 0.114791 0.810173 0.574842
vn 0.114791 0.810173 0.574842
vn 0.114791 0.810172 0.574842
vn 0.112986 0.976164 0.185305
vn 0.112986 0.976164 0.185305
vn 0.112986 0.976164 0.185305
vn 0.112986 0.976164 0.185305
vn 0.128446 0.988957 -0.073927
vn 0.128446 0.988957 -0.073927
vn 0.128446 0.988957 -0.073927
vn 0.128446 0.988957 -0.073927
vn 0.064611 -0.299078 -0.952039
vn 0.064611 -0.299078 -0.952039
vn 0.064611 -0.299078 -0.952039
vn 0.064611 -0.299078 -0.952039
vn 0.131584 0.477081 0.868953
vn 0.131584 0.477081 0.868953
vn 0.131584 0.477081 0.868953
vn 0.131584 0.477081 0.868953
vn 0.093464 0.795459 0.598757
vn 0.093464 0.795459 0.598757
vn 0.093464 0.795459 0.598757
vn 0.093464 0.795459 0.598757
vn 0.092779 0.983262 0.156804
vn 0.092779 0.983262 0.156804
vn 0.092779 0.983262 0.156804
vn 0.092779 0.983262 0.156804
vn 0.135578 0.984368 0.112421
vn 0.135578 0.984368 0.112421
vn 0.135578 0.984368 0.112421
vn 0.135578 0.984368 0.112421
vn 0.065777 -0.278050 -0.958312
vn 0.065777 -0.278050 -0.958312
vn 0.065777 -0.278050 -0.958312
vn 0.065777 -0.278050 -0.958312
vn 0.099475 0.524781 0.845405
vn 0.099475 0.524781 0.845405
vn 0.099475 0.524781 0.845405
vn 0.099475 0.524781 0.845405
vn -0.847064 0.102525 0.521510
vn -0.847064 0.102525 0.521510
vn -0.847064 0.102525 0.521510
vn -0.906791 0.397523 -0.140376
vn -0.906791 0.397523 -0.140376
vn -0.906791 0.397523 -0.140376
vn -0.906791 0.397523 -0.140376
vn -0.880860 0.472179 -0.033658
vn -0.880860 0.472179 -0.033658
vn -0.880860 0.472179 -0.033658
vn -0.880860 0.472179 -0.033658
vn -0.109258 0.137167 -0.984504
vn -0.109258 0.137167 -0.984504
vn -0.109258 0.137167 -0.984504
vn -0.109258 0.137167 -0.984504
vn 0.102778 0.072382 -0.992067
vn 0.102778 0.072382 -0.992067
vn 0.102778 0.072382 -0.992067
vn 0.102778 0.072382 -0.992067
vn 0.123509 0.216866 -0.968357
vn 0.123509 0.216866 -0.968357
vn 0.123509 0.216866 -0.968357
vn 0.123509 0.216866 -0.968357
vn 0.260966 0.242345 -0.934433
vn 0.260966 0.242345 -0.934433
vn 0.260966 0.242345 -0.934433
vn 0.260966 0.242345 -0.934433
vn 0.912996 0.281932 -0.294876
vn 0.912996 0.281932 -0.294876
vn 0.912996 0.281932 -0.294876
vn 0.912996 0.281932 -0.294876
vn 0.933501 0.349740 0.079112
vn 0.933501 0.349740 0.079112
vn 0.933501 0.349740 0.079112
vn 0.933501 0.349740 0.079112
vn 0.862111 0.481055 0.159222
vn 0.862111 0.481055 0.159222
vn 0.862111 0.481055 0.159222
s off
g pCube1
usemtl initialShadingGroup
f 1/14/1 29/18/2 33/19/3 34/15/4
f 25/27/5 11/20/6 34/15/7 33/19/8
f 38/36/9 28/37/10 5/22/11 37/21/12
f 2/1/13 13/2/14 43/3/15 30/4/16
f 35/12/17 12/13/18 1/14/19 34/15/20
f 37/21/21 5/22/22 8/17/23 36/16/24
f 9/6/25 6/9/26 41/10/27 42/5/28
f 7/23/29 26/25/30 27/26/31 3/24/32
f 36/16/33 8/17/34 12/13/35 35/12/36
f 42/5/37 43/3/38 13/2/39 9/6/40
f 7/23/41 11/20/42 25/27/43 26/25/44
f 14/7/45 15/34/46 31/35/47 30/4/48
f 15/34/49 14/7/50 10/8/51 16/31/52
f 17/32/53 16/31/54 10/8/55 4/11/56
f 41/10/57 6/9/58 18/41/59 40/40/60
f 19/42/61 2/1/62 30/4/63 31/35/64
f 15/34/65 20/30/66 32/33/67 31/35/68
f 20/30/69 15/34/70 16/31/71 21/28/72
f 22/29/73 21/28/74 16/31/75 17/32/76
f 40/40/77 18/41/78 23/39/79 39/38/80
f 24/43/81 19/42/82 31/35/83 32/33/84
f 20/30/85 25/27/86 33/19/87 32/33/88
f 25/27/89 20/30/90 21/28/91 26/25/92
f 27/26/93 26/25/94 21/28/95 22/29/96
f 39/38/97 23/39/98 28/37/99 38/36/100
f 29/18/101 24/43/102 32/33/103 33/19/104
f 35/12/105 34/15/106 11/20/107
f 35/12/108 11/20/109 7/23/110 36/16/111
f 37/21/112 36/16/113 7/23/114 3/24/115
f 3/24/116 27/26/117 38/36/118 37/21/119
f 39/38/120 38/36/121 27/26/122 22/29/123
f 40/40/124 39/38/125 22/29/126 17/32/127
f 41/10/128 40/40/129 17/32/130 4/11/131
f 10/8/132 42/5/133 41/10/134 4/11/135
f 10/8/136 14/7/137 43/3/138 42/5/139
f 30/4/140 43/3/141 14/7/142
