# This file uses centimeters as units for non-parametric coordinates.

mtllib LowPolyRock_01.mtl
g default
v -2.352625 0.012346 3.005543
v 2.495010 0.012346 1.476446
v -1.676194 3.174284 1.638710
v 1.218564 3.289305 0.840640
v -1.245240 4.000479 -1.937716
v 1.883777 3.779900 -1.883777
v -1.572993 0.012346 -1.716233
v 2.495010 0.012346 -2.497980
v 0.000001 5.161586 -1.322144
v 0.033986 0.012346 -2.497980
v 0.033986 0.012346 2.522046
v -0.000000 3.922092 1.501996
v -1.883777 3.779900 0.000000
v -3.410107 0.012346 -0.036955
v 0.033986 0.012346 -0.036955
v 2.943325 0.012346 -0.036955
v 1.388669 4.239136 -0.248217
v 0.000000 5.272844 -0.353725
v -1.472027 1.896123 -1.435664
v -2.288300 1.896123 0.000000
v -2.126226 1.896123 1.637811
v 0.000000 1.896123 1.775415
v 1.988787 2.494944 1.217211
v 2.107084 2.389253 0.000000
v 1.988787 1.896123 -1.988787
v 0.000000 2.801109 -2.373528
vt 0.358210 0.653305
vt 0.191608 0.576799
vt 0.233450 0.512316
vt 0.351565 0.528027
vt 0.335782 0.822553
vt 0.380902 0.399825
vt 0.477541 0.495512
vt 0.009237 0.623158
vt 0.630724 0.685265
vt 0.512593 0.589310
vt 0.585994 0.436104
vt 0.441262 0.407804
vt 0.387013 0.309591
vt 0.394508 0.192289
vt 0.579844 0.239962
vt 0.500303 0.301171
vt 0.287954 0.209565
vt 0.420033 0.000000
vt 0.711346 0.164740
vt 0.495930 0.749058
vt 0.623786 0.858426
vt 0.000000 0.325025
vt 0.740901 0.475245
vt 0.146306 0.355204
vt 0.269211 0.388183
vt 0.297470 0.283450
vt 0.456422 0.832055
vt 0.212716 0.046556
vt 0.821913 0.889644
vt 0.788657 0.705035
vt 0.646982 0.711216
vt 0.601479 1.000000
vt 0.459905 0.977693
vt 0.701009 0.969595
vn -0.016845 0.084466 0.996284
vn -0.016845 0.084466 0.996284
vn -0.016845 0.084466 0.996284
vn -0.016845 0.084466 0.996284
vn -0.298450 0.771653 0.561675
vn -0.298450 0.771653 0.561675
vn -0.298450 0.771653 0.561675
vn -0.213670 0.129978 -0.968221
vn -0.213670 0.129978 -0.968221
vn -0.213670 0.129978 -0.968221
vn -0.213670 0.129978 -0.968221
vn 0.000000 -1.000000 0.000000
vn 0.000000 -1.000000 0.000000
vn 0.000000 -1.000000 0.000000
vn 0.000000 -1.000000 0.000000
vn 0.375659 0.668516 0.641846
vn 0.375659 0.668516 0.641846
vn 0.375659 0.668516 0.641847
vn -0.953675 0.257699 0.155226
vn -0.953675 0.257699 0.155226
vn -0.953675 0.257699 0.155226
vn -0.953675 0.257699 0.155226
vn 0.112008 0.263803 -0.958051
vn 0.112008 0.263803 -0.958051
vn 0.112008 0.263803 -0.958051
vn 0.112008 0.263803 -0.958051
vn 0.000000 -1.000000 0.000000
vn 0.000000 -1.000000 0.000000
vn 0.000000 -1.000000 0.000000
vn 0.000000 -1.000000 0.000000
vn 0.341947 0.298724 0.890975
vn 0.341947 0.298724 0.890975
vn 0.341947 0.298724 0.890975
vn 0.341947 0.298724 0.890975
vn 0.432254 0.645005 0.630179
vn 0.432254 0.645005 0.630179
vn 0.432254 0.645005 0.630179
vn -0.869057 -0.024227 -0.494118
vn -0.869057 -0.024227 -0.494118
vn -0.869057 -0.024227 -0.494118
vn 0.000000 -1.000000 0.000000
vn 0.000000 -1.000000 0.000000
vn 0.000000 -1.000000 0.000000
vn 0.000000 -1.000000 0.000000
vn 0.000000 -1.000000 0.000000
vn 0.000000 -1.000000 0.000000
vn 0.000000 -1.000000 0.000000
vn 0.000000 -1.000000 0.000000
vn 0.975210 0.216778 0.044427
vn 0.975210 0.216778 0.044427
vn 0.975210 0.216778 0.044427
vn 0.975210 0.216778 0.044427
vn 0.598671 0.799821 -0.043349
vn 0.598671 0.799821 -0.043349
vn 0.598671 0.799821 -0.043349
vn -0.656331 0.749542 -0.086113
vn -0.656331 0.749542 -0.086113
vn -0.656331 0.749542 -0.086113
vn -0.728803 0.288857 -0.620813
vn -0.728803 0.288857 -0.620813
vn -0.728803 0.288857 -0.620813
vn -0.728803 0.288857 -0.620813
vn -0.891015 0.331939 0.309691
vn -0.891015 0.331939 0.309691
vn -0.891015 0.331939 0.309691
vn -0.060080 0.366859 0.928334
vn -0.060080 0.366859 0.928334
vn -0.060080 0.366859 0.928334
vn 0.298525 0.249171 0.921302
vn 0.298525 0.249171 0.921302
vn 0.298525 0.249171 0.921302
vn 0.298525 0.249171 0.921302
vn 0.941763 0.330353 0.062842
vn 0.941763 0.330353 0.062842
vn 0.941763 0.330353 0.062842
vn 0.936542 0.314846 -0.154145
vn 0.936542 0.314846 -0.154145
vn 0.936542 0.314846 -0.154145
vn 0.936542 0.314846 -0.154145
vn 0.320585 0.326496 -0.889171
vn 0.320585 0.326496 -0.889171
vn 0.320585 0.326496 -0.889171
vn -0.595034 0.149506 -0.789673
vn -0.595034 0.149506 -0.789673
vn -0.595034 0.149506 -0.789673
vn -0.437189 0.034778 -0.898697
vn -0.437189 0.034778 -0.898697
vn -0.437189 0.034778 -0.898697
vn 0.000000 0.044582 -0.999006
vn 0.000000 0.044582 -0.999006
vn 0.000000 0.044582 -0.999006
vn 0.927931 0.368179 0.058213
vn 0.927931 0.368180 0.058213
vn 0.927931 0.368180 0.058213
vn 0.570507 0.815926 -0.093738
vn 0.570507 0.815926 -0.093738
vn 0.570507 0.815926 -0.093738
vn -0.936918 0.201194 -0.285841
vn -0.936918 0.201194 -0.285841
vn -0.936918 0.201194 -0.285841
vn -0.856827 0.508585 0.084790
vn -0.856827 0.508585 0.084790
vn -0.856827 0.508585 0.084790
vn 0.163598 0.566663 0.807545
vn 0.163598 0.566663 0.807545
vn 0.163598 0.566663 0.807545
vn 0.935396 0.219670 0.277092
vn 0.935396 0.219670 0.277092
vn 0.935396 0.219670 0.277092
vn 0.594450 0.650142 0.473229
vn 0.594449 0.650142 0.473229
vn 0.594450 0.650142 0.473229
vn -0.540204 0.764803 0.351078
vn -0.540204 0.764803 0.351078
vn -0.540204 0.764803 0.351078
vn -0.630388 0.766881 -0.120435
vn -0.630388 0.766881 -0.120435
vn -0.630388 0.766881 -0.120435
s off
g pCube1
usemtl initialShadingGroup
f 21/2/1 22/24/2 12/25/3 3/3/4
f 3/3/5 12/25/6 18/6/7
f 5/7/8 9/12/9 26/11/10 19/10/11
f 14/29/12 15/21/13 11/31/14 1/30/15
f 23/17/16 17/13/17 4/26/18
f 20/1/19 21/2/20 3/3/21 13/4/22
f 9/12/23 6/16/24 25/15/25 26/11/26
f 11/31/27 15/21/28 16/27/29 2/20/30
f 12/25/31 22/24/32 23/17/33 4/26/34
f 18/6/35 4/26/36 17/13/37
f 19/10/38 20/1/39 5/7/40
f 7/34/41 10/32/42 15/21/43 14/29/44
f 16/27/45 15/21/46 10/32/47 8/33/48
f 17/13/49 24/14/50 25/15/51 6/16/52
f 6/16/53 18/6/54 17/13/55
f 5/7/56 18/6/57 9/12/58
f 7/9/59 14/5/60 20/1/61 19/10/62
f 14/5/63 1/8/64 21/2/65
f 21/2/66 11/22/67 22/24/68
f 23/17/69 22/24/70 11/22/71 2/28/72
f 23/17/73 16/18/74 24/14/75
f 25/15/76 24/14/77 16/18/78 8/19/79
f 26/11/80 25/15/81 8/19/82
f 19/10/83 26/11/84 7/9/85
f 7/9/86 26/11/87 10/23/88
f 26/11/89 8/19/90 10/23/91
f 23/17/92 24/14/93 17/13/94
f 9/12/95 18/6/96 6/16/97
f 5/7/98 20/1/99 13/4/100
f 14/5/101 21/2/102 20/1/103
f 1/8/104 11/22/105 21/2/106
f 2/28/107 16/18/108 23/17/109
f 18/6/110 12/25/111 4/26/112
f 3/3/113 18/6/114 13/4/115
f 13/4/116 18/6/117 5/7/118
