# This file uses centimeters as units for non-parametric coordinates.

mtllib DeadBranch_01.mtl
g default
v 0.088758 -0.156826 -7.469863
v -0.088758 -0.156826 -7.469863
v -0.177515 -0.000000 -7.469863
v -0.088758 0.156826 -7.469863
v 0.088758 0.156826 -7.469863
v 0.177515 0.000000 -7.469863
v -0.329962 -0.119325 -9.163640
v -0.424067 -0.046950 -9.163640
v -0.532563 -0.000000 -9.163640
v -0.465029 0.119325 -9.163640
v -0.370923 0.046950 -9.163640
v -0.262428 0.000000 -9.163640
v 0.000000 0.000000 -7.469863
v -0.397495 -0.000000 -9.163640
v -0.229503 0.156826 -7.863859
v -0.318261 -0.000000 -7.863859
v -0.229503 -0.156826 -7.863859
v -0.051988 -0.156826 -7.863859
v 0.036770 0.000000 -7.863859
v -0.051988 0.156826 -7.863859
v -0.088056 -0.000000 -8.591118
v -0.156414 0.120782 -8.591118
v -0.293130 0.120782 -8.591118
v -0.361488 -0.000000 -8.591118
v -0.293130 -0.120782 -8.591118
v -0.156414 -0.120782 -8.591118
v -0.042618 -0.047351 -9.785612
v -0.121988 -0.047351 -9.785612
v -0.082303 -0.000000 -9.785612
v -0.042619 0.047351 -9.785613
v -0.002933 -0.000000 -9.785613
v -0.859203 -0.061434 -9.708700
v -0.893972 -0.000000 -9.708701
v -0.824434 -0.000000 -9.708700
v -0.859202 0.061434 -9.708701
v -0.789665 0.061434 -9.708700
vt 0.330293 0.555117
vt 0.330293 0.428415
vt 0.455930 0.457535
vt 0.455930 0.555117
vt 0.554835 0.458712
vt 0.554835 0.555117
vt 0.330293 0.681819
vt 0.455930 0.652699
vt 0.554835 0.593049
vt 0.563485 0.221221
vt 0.690188 0.294373
vt 0.690188 0.410372
vt 0.563485 0.337220
vt 0.690188 0.148070
vt 0.816890 0.221221
vt 0.816890 0.337220
vt 0.563485 0.074918
vt 0.690188 0.001766
vt 0.816890 0.074918
vt 0.001992 0.074918
vt 0.128695 0.001766
vt 0.128695 0.117765
vt 0.001992 0.190917
vt 0.255397 0.074918
vt 0.255397 0.190917
vt 0.128695 0.220643
vt 0.031113 0.276982
vt 0.226276 0.276982
vt 0.128695 0.364356
vt 0.090763 0.453775
vt 0.225100 0.420015
vt 0.031113 0.389659
vt 0.032289 0.531334
vt 0.079061 0.798890
vt 0.079061 0.856201
vt 0.128695 0.475675
vt 0.128695 0.827546
vt 0.090439 0.183195
vt 0.128695 0.215902
vt 0.166626 0.497575
vt 0.178328 0.856202
vt 0.128695 0.884857
vt 0.128695 0.150487
vt 0.166950 0.183194
vt 0.166950 0.248609
vt 0.739698 0.728744
vt 0.701766 0.706844
vt 0.701766 0.447071
vt 0.740022 0.479778
vt 0.798171 0.651185
vt 0.740022 0.414363
vt 0.657376 0.642283
vt 0.560971 0.697943
vt 0.619120 0.461121
vt 0.657376 0.428414
vt 0.695308 0.731702
vt 0.695631 0.461122
vt 0.836347 0.001766
vt 0.874278 0.091185
vt 0.874278 0.389049
vt 0.824645 0.360394
vt 0.970683 0.035526
vt 0.923912 0.360393
vt 0.555954 0.001766
vt 0.555954 0.148070
vt 0.487889 0.264068
vt 0.487889 0.117765
vt 0.362252 0.316508
vt 0.362252 0.203830
vt 0.263347 0.424423
vt 0.263347 0.346863
vt 0.804307 0.560667
vt 0.804307 0.414363
vt 0.872371 0.530362
vt 0.872371 0.676666
vt 0.998008 0.616427
vt 0.998008 0.729105
vn 0.000000 -1.000000 -0.000000
vn 0.000000 -1.000000 -0.000000
vn 0.000000 -1.000000 -0.000000
vn 0.000000 -1.000000 -0.000000
vn -0.831050 -0.470344 0.296873
vn -0.831050 -0.470344 0.296873
vn -0.831050 -0.470344 0.296873
vn -0.831050 -0.470344 0.296873
vn -0.831050 0.470343 0.296872
vn -0.831050 0.470343 0.296872
vn -0.831050 0.470343 0.296872
vn -0.831050 0.470343 0.296872
vn -0.000000 1.000000 0.000000
vn -0.000000 1.000000 0.000000
vn -0.000000 1.000000 0.000000
vn -0.000000 1.000000 0.000000
vn 0.831050 0.470343 -0.296872
vn 0.831050 0.470343 -0.296872
vn 0.831050 0.470343 -0.296872
vn 0.831050 0.470343 -0.296872
vn 0.831050 -0.470344 -0.296873
vn 0.831050 -0.470343 -0.296873
vn 0.831050 -0.470344 -0.296873
vn 0.831050 -0.470343 -0.296873
vn 0.000009 0.000000 1.000000
vn 0.000009 0.000000 1.000000
vn 0.000009 0.000000 1.000000
vn -0.000006 0.000000 1.000000
vn -0.000006 0.000000 1.000000
vn -0.000006 0.000000 1.000000
vn 0.000000 0.000000 1.000000
vn 0.000000 0.000000 1.000000
vn 0.000000 0.000000 1.000000
vn 0.000000 0.000000 1.000000
vn 0.000000 0.000000 1.000000
vn 0.000000 0.000000 1.000000
vn 0.000000 0.000000 1.000000
vn 0.000000 0.000000 1.000000
vn 0.000000 0.000000 1.000000
vn 0.000000 0.000000 1.000000
vn 0.000000 0.000000 1.000000
vn 0.000000 0.000000 1.000000
vn 0.000000 0.000000 -1.000000
vn 0.000000 0.000000 -1.000000
vn 0.000000 0.000000 -1.000000
vn 0.000000 -0.000008 -1.000000
vn 0.000000 -0.000008 -1.000000
vn 0.000000 -0.000008 -1.000000
vn 0.000036 -0.000008 -1.000000
vn 0.000036 -0.000008 -1.000000
vn 0.000036 -0.000008 -1.000000
vn 0.000000 -0.000008 -1.000000
vn 0.000000 -0.000008 -1.000000
vn 0.000000 -0.000008 -1.000000
vn -0.000032 -0.000010 -1.000000
vn -0.000032 -0.000010 -1.000000
vn -0.000032 -0.000010 -1.000000
vn 0.000000 -0.000010 -1.000000
vn 0.000000 -0.000010 -1.000000
vn 0.000000 -0.000010 -1.000000
vn -0.869123 0.491891 0.051659
vn -0.869123 0.491891 0.051659
vn -0.869123 0.491891 0.051659
vn -0.869123 0.491891 0.051659
vn -0.869123 -0.491891 0.051659
vn -0.869123 -0.491891 0.051659
vn -0.869123 -0.491891 0.051659
vn -0.869123 -0.491891 0.051659
vn 0.000000 -0.998774 -0.049501
vn 0.000000 -0.998774 -0.049501
vn 0.000000 -0.998774 -0.049501
vn 0.000000 -0.998774 -0.049501
vn 0.860735 -0.487144 -0.147735
vn 0.860735 -0.487144 -0.147735
vn 0.860735 -0.487144 -0.147735
vn 0.860735 -0.487144 -0.147735
vn 0.860735 0.487144 -0.147735
vn 0.860735 0.487144 -0.147735
vn 0.860735 0.487144 -0.147735
vn 0.860735 0.487144 -0.147735
vn 0.000000 0.998774 -0.049501
vn 0.000000 0.998774 -0.049501
vn 0.000000 0.998774 -0.049501
vn 0.000000 0.998774 -0.049501
vn 0.662576 0.698609 -0.270071
vn 0.662576 0.698609 -0.270071
vn 0.662576 0.698609 -0.270071
vn 0.662576 0.698609 -0.270071
vn 0.295261 0.941659 -0.161554
vn 0.295261 0.941659 -0.161554
vn 0.295261 0.941659 -0.161554
vn 0.295261 0.941659 -0.161554
vn -0.842271 0.476694 0.251679
vn -0.842271 0.476694 0.251679
vn -0.842271 0.476694 0.251679
vn -0.842271 0.476694 0.251679
vn -0.681987 -0.719074 0.133513
vn -0.681987 -0.719074 0.133513
vn -0.681987 -0.719074 0.133513
vn -0.681987 -0.719074 0.133513
vn -0.299148 -0.954058 0.016818
vn -0.299148 -0.954058 0.016818
vn -0.299149 -0.954058 0.016818
vn -0.299149 -0.954058 0.016818
vn 0.841235 -0.476108 -0.256213
vn 0.841235 -0.476108 -0.256213
vn 0.841235 -0.476108 -0.256213
vn 0.841235 -0.476108 -0.256213
vn -0.374783 -0.898316 -0.229272
vn -0.374783 -0.898316 -0.229272
vn -0.374783 -0.898316 -0.229272
vn -0.374783 -0.898316 -0.229272
vn -0.758072 0.532629 -0.376343
vn -0.758072 0.532629 -0.376343
vn -0.758072 0.532629 -0.376343
vn -0.758072 0.532629 -0.376343
vn 0.520371 0.817694 0.246153
vn 0.520371 0.817693 0.246153
vn 0.520371 0.817694 0.246153
vn 0.520371 0.817693 0.246153
vn -0.753560 0.529454 -0.389649
vn -0.753560 0.529454 -0.389649
vn -0.753559 0.529454 -0.389649
vn -0.753559 0.529454 -0.389649
vn 0.796640 -0.512456 0.320553
vn 0.796640 -0.512456 0.320553
vn 0.796640 -0.512456 0.320553
vn 0.796640 -0.512456 0.320553
vn -0.549893 -0.726855 0.411461
vn -0.549893 -0.726855 0.411461
vn -0.549893 -0.726855 0.411461
vn -0.549893 -0.726855 0.411461
vn 0.719098 -0.406984 -0.563260
vn 0.719098 -0.406984 -0.563260
vn 0.719098 -0.406984 -0.563260
vn 0.719098 -0.406984 -0.563260
vn -0.753786 0.426615 0.499806
vn -0.753786 0.426615 0.499806
vn -0.753786 0.426615 0.499806
vn -0.753786 0.426615 0.499806
vn 0.383180 0.866383 -0.320239
vn 0.383180 0.866383 -0.320239
vn 0.383180 0.866383 -0.320240
vn 0.383180 0.866383 -0.320240
vn 0.719098 -0.406983 -0.563261
vn 0.719098 -0.406983 -0.563261
vn 0.719098 -0.406983 -0.563261
vn 0.719098 -0.406983 -0.563261
s off
g DeadBranch_01
usemtl initialShadingGroup
f 1/64/1 2/65/2 17/66/3 18/67/4
f 2/10/5 3/11/6 16/12/7 17/13/8
f 3/11/9 4/15/10 15/16/11 16/12/12
f 4/72/13 5/73/14 20/74/15 15/75/16
f 5/20/17 6/21/18 19/22/19 20/23/20
f 6/21/21 1/24/22 18/25/23 19/22/24
f 2/10/25 1/17/26 13/14/27
f 3/11/28 2/10/29 13/14/30
f 4/15/31 3/11/32 13/14/33
f 5/19/34 4/15/35 13/14/36
f 6/18/37 5/19/38 13/14/39
f 1/17/40 6/18/41 13/14/42
f 27/44/43 28/45/44 29/39/45
f 32/41/46 33/42/47 34/37/48
f 33/42/49 35/35/50 34/37/51
f 35/35/52 36/34/53 34/37/54
f 30/38/55 31/43/56 29/39/57
f 31/43/58 27/44/59 29/39/60
f 16/1/61 15/2/62 23/3/63 24/4/64
f 17/7/65 16/1/66 24/4/67 25/8/68
f 18/67/69 17/66/70 25/68/71 26/69/72
f 19/22/73 18/25/74 26/28/75 21/26/76
f 20/23/77 19/22/78 21/26/79 22/27/80
f 15/75/81 20/74/82 22/76/83 23/77/84
f 22/27/85 21/26/86 12/29/87 11/30/88
f 23/32/89 22/27/90 11/30/91 10/33/92
f 24/4/93 23/3/94 10/5/95 9/6/96
f 25/8/97 24/4/98 9/6/99 8/9/100
f 26/69/101 25/68/102 8/70/103 7/71/104
f 21/26/105 26/28/106 7/31/107 12/29/108
f 7/50/109 8/46/110 28/49/111 27/51/112
f 8/46/113 14/47/114 29/48/115 28/49/116
f 11/56/117 12/52/118 31/55/119 30/57/120
f 14/36/121 11/30/122 30/38/123 29/39/124
f 12/52/125 7/53/126 27/54/127 31/55/128
f 8/58/129 9/59/130 33/60/131 32/61/132
f 14/36/133 8/40/134 32/41/135 34/37/136
f 9/59/137 10/62/138 35/63/139 33/60/140
f 10/33/141 11/30/142 36/34/143 35/35/144
f 11/30/145 14/36/146 34/37/147 36/34/148
